# xmcd CD database file
#
# Track frame offsets:
#	150
#	20933
#	46383
#	67684
#	85310
#	105037
#	132621
#	151800
#	177601
#	193360
#
# Disc length: 2817 seconds
#
# Revision: 0
# Processed by: cddbd v1.5.2PL0 Copyright (c) Steve Scherf et al.
# Submitted via: Feurio! 1.68 - http://www.feurio.com
#
DISCID=860aff0a
DTITLE=Feuerzeux - Wu issn dr Kunsum hie
DYEAR=1900
DGENRE=
TTITLE0=??? - Wu issn dr Kunsum hie
TTITLE1=??? - Es geht eine Blüte auf reisen
TTITLE2=??? - Wenn die Polonaise wendet
TTITLE3=??? - Könnte Weihnacht nicht im Juni
TTITLE4=??? - Bude baun
TTITLE5=??? - Riese Andy
TTITLE6=??? - Ok Buusch und a boar Steene
TTITLE7=??? - Weiberabitur
TTITLE8=??? - Besser wiederlich als wieder ni
TTITLE9=??? - So lange singen noch erlaubt is
EXTD=
EXTT0=
EXTT1=
EXTT2=
EXTT3=
EXTT4=
EXTT5=
EXTT6=
EXTT7=
EXTT8=
EXTT9=
PLAYORDER=
